<svg width="433" height="433" viewBox="0 0 433 433" fill="none" xmlns="http://www.w3.org/2000/svg">
<g clip-path="url(#clip0)">
<path d="M283.512 284.484C262.85 305.133 265.433 346.8 265.433 346.8H160.647C160.647 346.8 162.861 305.133 142.568 284.484C120.061 264.573 105.671 235.812 105.671 203.732C105.671 144.735 153.637 96.8 212.671 96.8C271.705 96.8 319.671 144.735 319.671 203.732C319.671 235.812 305.65 264.573 283.512 284.484Z" fill="#AAAAAA"/>
<path d="M216.2 93C155 93 105 143 105 204.2C105 236.2 119 267 142.6 287.8C160.2 305.4 158.6 343 158.2 343.4C158.2 345.4 158.6 347 160.2 348.6C161.4 349.8 163.4 350.6 165 350.6H267C269 350.6 270.6 349.8 271.8 348.6C273 347.4 273.8 345.4 273.8 343.4C273.8 343 271.8 305.4 289.4 287.8C289.8 287.4 290.2 287 290.6 286.6C313.8 265.4 327.4 235.4 327.4 204.2C327.4 143 277.4 93 216.2 93ZM280.2 277.4C279.8 277.8 279 278.6 279 279C263.4 295.8 260.6 323.4 260.2 336.6H171.8C171.4 323.4 168.6 294.6 151.8 277.4C130.6 259 118.2 232.2 118.2 203.8C118.2 149.8 161.8 106.2 215.8 106.2C269.8 106.2 313.4 149.8 313.4 203.8C313.4 232.2 301.4 259 280.2 277.4Z" fill="#807F7F"/>
<path d="M215.8 121.4C212.2 121.4 209 124.6 209 128.2C209 131.8 212.2 135 215.8 135C256.2 135 288.6 167.8 288.6 207.8C288.6 211.4 291.8 214.6 295.4 214.6C299 214.6 302.2 211.4 302.2 207.8C302.6 160.2 263.8 121.4 215.8 121.4Z" fill="white" fill-opacity="0.17"/>
<path d="M260.2 358.2H171.4C162.2 358.2 154.6 365.8 154.6 375C154.6 384.2 162.2 391.8 171.4 391.8H259.8C269.4 391.4 277 384.2 277 375C277 365.8 269.4 358.2 260.2 358.2ZM260.2 377.8H171.4C169.8 377.8 168.2 376.6 168.2 374.6C168.2 372.6 169.4 371.4 171.4 371.4H259.8C261.4 371.4 263 372.6 263 374.6C263 376.6 261.8 377.8 260.2 377.8Z" fill="#807F7F"/>
<path d="M247 398.6H184.6C175.4 398.6 167.8 406.2 167.8 415.4C167.8 424.6 175.4 432.2 184.6 432.2H247C256.2 432.2 263.8 424.6 263.8 415.4C263.8 405.8 256.2 398.6 247 398.6ZM247 418.2H184.6C183 418.2 181.4 417 181.4 415C181.4 413 182.6 411.8 184.6 411.8H247C248.6 411.8 250.2 413 250.2 415C250.2 417 248.6 418.2 247 418.2Z" fill="#807F7F"/>
</g>
<defs>
<clipPath id="clip0">
<rect width="432.4" height="432.4" fill="white"/>
</clipPath>
</defs>
</svg>
