<svg width="481" height="481" viewBox="0 0 481 481" fill="none" xmlns="http://www.w3.org/2000/svg">
<g clip-path="url(#clip0)">
<path d="M317.112 314.4C294.712 336.8 297.512 382 297.512 382H183.912C183.912 382 186.312 336.8 164.312 314.4C139.912 292.8 124.312 261.6 124.312 226.8C124.312 162.8 176.312 110.8 240.312 110.8C304.312 110.8 356.312 162.8 356.312 226.8C356.312 261.6 341.112 292.8 317.112 314.4Z" fill="#07C378"/>
<path d="M300.712 417.6C300.712 423.6 295.912 428.4 289.912 428.4H191.112C185.112 428.4 180.312 423.6 180.312 417.6C180.312 411.6 185.112 406.8 191.112 406.8H289.512C295.512 406.8 300.712 411.6 300.712 417.6Z" fill="#E5E5E5"/>
<path d="M285.912 462.4C285.912 468.4 281.112 473.2 275.112 473.2H205.912C199.912 473.2 195.112 468.4 195.112 462.4C195.112 456.4 199.912 451.6 205.912 451.6H275.112C281.112 451.6 285.912 456.4 285.912 462.4Z" fill="#E5E5E5"/>
<path d="M240.312 135.2C236.312 135.2 232.712 138.4 232.712 142.8C232.712 146.8 235.912 150.4 240.312 150.4C285.112 150.4 321.512 186.8 321.512 231.6C321.512 235.6 324.712 239.2 329.112 239.2C333.112 239.2 336.712 236 336.712 231.6C336.712 178.4 293.512 135.2 240.312 135.2Z" fill="white" fill-opacity="0.38"/>
<path d="M308.312 417.6C308.312 407.2 299.912 399.2 289.912 399.2H191.112C180.712 399.2 172.712 407.6 172.712 417.6C172.712 428 181.112 436 191.112 436H289.512C299.912 436 308.312 428 308.312 417.6ZM289.512 420.8H191.112C189.112 420.8 187.912 419.2 187.912 417.6C187.912 415.6 189.512 414.4 191.112 414.4H289.512C291.512 414.4 292.712 416 292.712 417.6C293.112 419.6 291.512 420.8 289.512 420.8Z" fill="#210B20"/>
<path d="M275.112 444H205.912C195.512 444 187.512 452.4 187.512 462.4C187.512 472.8 195.912 480.8 205.912 480.8H275.112C285.512 480.8 293.512 472.4 293.512 462.4C293.512 452.4 285.112 444 275.112 444ZM275.112 465.6H205.912C203.912 465.6 202.712 464 202.712 462.4C202.712 460.4 204.312 459.2 205.912 459.2H275.112C277.112 459.2 278.312 460.8 278.312 462.4C278.312 464.4 277.112 465.6 275.112 465.6Z" fill="#210B20"/>
<path d="M247.912 58.8V7.6C247.912 3.6 244.712 0 240.312 0C236.312 0 232.712 3.2 232.712 7.6V59.2C232.712 63.2 235.912 66.8 240.312 66.8C244.712 66.4 247.912 63.2 247.912 58.8Z" fill="#07C378"/>
<path d="M366.312 38C362.712 35.6 358.312 36.8 355.912 40L327.512 82.8C325.112 86.4 326.312 90.8 329.512 93.2C330.712 94 332.312 94.4 333.512 94.4C335.912 94.4 338.312 93.2 339.912 91.2L368.312 48.4C370.712 45.2 369.512 40.4 366.312 38Z" fill="#07C378"/>
<path d="M149.912 92.8C151.112 92.8 152.712 92.4 153.912 91.6C157.512 89.2 158.312 84.8 156.312 81.2L128.712 38C126.312 34.4 121.912 33.6 118.312 35.6C114.712 38 113.912 42.4 115.912 46L143.512 89.2C145.112 91.6 147.512 92.8 149.912 92.8Z" fill="#07C378"/>
<path d="M43.912 128.8L89.112 153.2C90.312 154 91.512 154 92.712 154C95.512 154 97.912 152.4 99.512 150C101.512 146.4 100.312 141.6 96.312 139.6L51.112 115.2C47.512 113.2 42.712 114.4 40.712 118.4C39.112 122.4 40.312 126.8 43.912 128.8Z" fill="#07C378"/>
<path d="M387.912 154.4C389.112 154.4 390.312 154 391.512 153.6L436.712 129.2C440.312 127.2 441.912 122.8 439.912 118.8C437.912 115.2 433.512 113.6 429.512 115.6L384.312 140C380.712 142 379.112 146.4 381.112 150.4C382.312 152.8 385.112 154.4 387.912 154.4Z" fill="#07C378"/>
</g>
<defs>
<clipPath id="clip0">
<rect width="480.8" height="480.8" fill="white"/>
</clipPath>
</defs>
</svg>
