<svg width="162" height="27" viewBox="0 0 162 27" fill="none" xmlns="http://www.w3.org/2000/svg">
<path d="M4.37811 21.3102L24.4691 25.9163L12.3206 16.3848L4.37811 21.3102Z" fill="url(#paint0_linear)"/>
<path d="M2.15056 1.10335H23.0956H24.5237C25.4703 1.10335 25.8376 1.67819 25.6948 2.76362C25.6948 2.76362 25.6682 3.63226 24.9108 4.80053C23.4211 7.58914 20.4373 9.76394 18.0397 12.0869C13.0938 16.8787 6.00498 24.3498 2.5684 25.778C1.27754 26.0448 0.912801 25.5795 0.644318 25.0149C0.158721 23.9295 0.644318 2.36373 0.644318 2.36373C0.644318 2.36373 0.514838 1.29973 2.15056 1.10335V1.10335Z" fill="#07C378"/>
<path d="M40.0982 1.35015L51.8955 24.3087C51.8955 24.3087 52.9364 26.0436 50.9702 25.9279C49.004 25.8122 27.8961 25.9857 27.8961 25.9857C27.8961 25.9857 26.4504 25.6966 27.1443 24.0774C27.8383 22.4581 38.7826 1.37905 38.7826 1.37905C38.7826 1.37905 39.3608 0.410408 40.0982 1.35017V1.35015Z" fill="url(#paint1_linear)"/>
<path d="M40.0982 1.35015L41.4515 17.9936C41.6651 20.6215 35.0502 22.6236 31.5694 24.4635C30.3976 25.0829 28.3463 26.139 27.8961 25.9857C27.8961 25.9857 26.4504 25.6966 27.1443 24.0774C27.8383 22.4581 38.7826 1.37905 38.7826 1.37905C38.7826 1.37905 39.3608 0.410408 40.0982 1.35017V1.35015Z" fill="#07C378"/>
<path d="M106.767 21.9794L106.866 25.3036C106.879 25.7738 106.093 26.0863 105.272 26.0788L83.3958 25.8789C82.5748 25.8714 81.9823 25.4394 82.0339 24.9719L83.0023 16.2089C83.054 15.7413 83.805 15.2193 84.5959 15.4337L105.405 21.0723C106.197 21.2867 106.753 21.5092 106.767 21.9794V21.9794Z" fill="url(#paint2_linear)"/>
<path d="M83.502 0.92128H92.1099C92.9262 0.92128 93.5374 1.57972 93.5834 2.39471L94.8241 24.4186C94.8701 25.2336 94.167 25.892 93.3507 25.892H83.502C82.6857 25.892 82.0286 25.2349 82.0286 24.4186V2.39471C82.0286 1.57843 82.6857 0.92128 83.502 0.92128V0.92128Z" fill="#07C378"/>
<path d="M67.5776 1.35015L79.3749 24.3087C79.3749 24.3087 80.4158 26.0436 78.4496 25.9279C76.4834 25.8122 55.3755 25.9857 55.3755 25.9857C55.3755 25.9857 53.9298 25.6966 54.6237 24.0774C55.3177 22.4581 66.262 1.37905 66.262 1.37905C66.262 1.37905 66.8403 0.410408 67.5776 1.35017V1.35015Z" fill="url(#paint3_linear)"/>
<path d="M67.5776 1.35015L68.9309 17.9936C69.1446 20.6215 62.5296 22.6236 59.0488 24.4635C57.8771 25.0829 55.8258 26.139 55.3755 25.9857C55.3755 25.9857 53.9298 25.6966 54.6237 24.0774C55.3177 22.4581 66.262 1.37905 66.262 1.37905C66.262 1.37905 66.8403 0.410408 67.5776 1.35017V1.35015Z" fill="#07C378"/>
<path d="M134.33 21.973L134.426 25.087C134.438 25.5275 133.676 25.8259 132.88 25.8132L110.571 25.456L110.119 24.8762L111.279 16.5673C111.339 16.1306 112.057 15.6403 112.824 15.8411L133.009 21.1232C133.776 21.324 134.316 21.5325 134.33 21.973Z" fill="url(#paint4_linear)"/>
<path d="M110.622 4.97288L110.526 1.85883C110.513 1.41838 111.275 1.1253 112.072 1.13266L133.871 1.33402C133.876 1.60131 134.418 1.59382 134.393 1.88684L133.673 10.3786C133.636 10.8179 132.894 11.3055 132.127 11.1048L111.943 5.82261C111.176 5.62183 110.635 5.41333 110.622 4.97288V4.97288Z" fill="url(#paint5_linear)"/>
<path d="M133.441 1.45536L111.096 13.826C110.563 14.1209 110.131 14.8538 110.131 15.4628V24.7493C110.131 25.3583 110.563 25.6129 111.096 25.318L133.441 12.9473C133.974 12.6524 134.406 11.9195 134.406 11.3104V2.024C134.406 1.41496 133.974 1.16037 133.441 1.45536Z" fill="#07C378"/>
<path d="M161.476 21.973L161.571 25.087C161.584 25.5275 160.822 25.8259 160.026 25.8132L137.716 25.456L137.265 24.8762L138.424 16.5673C138.485 16.1306 139.203 15.6403 139.97 15.8411L160.155 21.1232C160.922 21.324 161.462 21.5325 161.476 21.973Z" fill="url(#paint6_linear)"/>
<path d="M137.767 4.97288L137.672 1.85883C137.659 1.41838 138.421 1.1253 139.218 1.13266L161.017 1.33402C161.022 1.60131 161.564 1.59382 161.539 1.88684L160.819 10.3786C160.781 10.8179 160.04 11.3055 159.273 11.1048L139.089 5.82261C138.321 5.62183 137.781 5.41333 137.767 4.97288V4.97288Z" fill="url(#paint7_linear)"/>
<path d="M160.587 1.45536L138.242 13.826C137.709 14.1209 137.277 14.8538 137.277 15.4628V24.7493C137.277 25.3583 137.709 25.6129 138.242 25.318L160.587 12.9473C161.12 12.6524 161.552 11.9195 161.552 11.3104V2.024C161.552 1.41496 161.12 1.16037 160.587 1.45536Z" fill="#07C378"/>
<defs>
<linearGradient id="paint0_linear" x1="9.14941" y1="18.1953" x2="11.801" y2="20.8264" gradientUnits="userSpaceOnUse">
<stop stop-color="#035736"/>
<stop offset="1" stop-color="#07C378"/>
</linearGradient>
<linearGradient id="paint1_linear" x1="29.2654" y1="10.7386" x2="44.0498" y2="16.2333" gradientUnits="userSpaceOnUse">
<stop stop-color="#035736"/>
<stop offset="1" stop-color="#07C378"/>
</linearGradient>
<linearGradient id="paint2_linear" x1="89.3089" y1="21.7712" x2="97.0287" y2="22.2511" gradientUnits="userSpaceOnUse">
<stop stop-color="#035736"/>
<stop offset="1" stop-color="#07C378"/>
</linearGradient>
<linearGradient id="paint3_linear" x1="55.0236" y1="13.0655" x2="71.4008" y2="17.805" gradientUnits="userSpaceOnUse">
<stop stop-color="#035736"/>
<stop offset="1" stop-color="#07C378"/>
</linearGradient>
<linearGradient id="paint4_linear" x1="113.909" y1="14.866" x2="120.514" y2="23.7449" gradientUnits="userSpaceOnUse">
<stop stop-color="#035736"/>
<stop offset="1" stop-color="#07C378"/>
</linearGradient>
<linearGradient id="paint5_linear" x1="130.145" y1="9.40526" x2="125.537" y2="3.0539" gradientUnits="userSpaceOnUse">
<stop stop-color="#035736"/>
<stop offset="1" stop-color="#07C378"/>
</linearGradient>
<linearGradient id="paint6_linear" x1="141.054" y1="14.866" x2="147.659" y2="23.7449" gradientUnits="userSpaceOnUse">
<stop stop-color="#035736"/>
<stop offset="1" stop-color="#07C378"/>
</linearGradient>
<linearGradient id="paint7_linear" x1="157.291" y1="9.40526" x2="152.683" y2="3.0539" gradientUnits="userSpaceOnUse">
<stop stop-color="#035736"/>
<stop offset="1" stop-color="#07C378"/>
</linearGradient>
</defs>
</svg>
