<svg width="26" height="25" viewBox="0 0 26 25" fill="none" xmlns="http://www.w3.org/2000/svg">
<path d="M4.37811 20.3102L24.4691 24.9163L12.3206 15.3848L4.37811 20.3102Z" fill="url(#paint0_linear)"/>
<path d="M2.15056 0.103348H23.0956H24.5237C25.4703 0.103348 25.8376 0.678193 25.6948 1.76362C25.6948 1.76362 25.6682 2.63226 24.9108 3.80053C23.4211 6.58914 20.4373 8.76394 18.0397 11.0869C13.0938 15.8787 6.00498 23.3498 2.5684 24.778C1.27754 25.0448 0.912801 24.5795 0.644318 24.0149C0.158721 22.9295 0.644318 1.36373 0.644318 1.36373C0.644318 1.36373 0.514838 0.299729 2.15056 0.103348V0.103348Z" fill="#07C378"/>
<defs>
<linearGradient id="paint0_linear" x1="9.14941" y1="17.1953" x2="11.801" y2="19.8264" gradientUnits="userSpaceOnUse">
<stop stop-color="#035736"/>
<stop offset="1" stop-color="#07C378"/>
</linearGradient>
</defs>
</svg>
